# xmcd
#
# Track frame offsets:
# 150
# 21138
# 38532
# 60146
# 74144
# 89086
# 108380
# 131368
# 154796
# 175832
# 189357
# 209333
# 230796
# 248109
# 264068
# 277114
#
# Disc length: 15558 seconds
#
#
# Revision: 0
# Processed by: cddbd v1.5.2PL0 Copyright (c) Steve Scherf et al.
# Submitted via: FreeRIP 2.945 
#
DISCID=dc3cc410
DTITLE=Peter Lipa - Beatles in Blue(s)
DYEAR=2002
DGENRE=Blues
TTITLE0=Day Tripper
TTITLE1=Norwegian Wood
TTITLE2=And I Love Her
TTITLE3=Every Little Thing
TTITLE4=Misery
TTITLE5=Got To Get You Into My Life
TTITLE6=Do You Want to Know a Secret
TTITLE7=I Wanna Be Your Man
TTITLE8=The Fool on the Hill
TTITLE9=I´ve Just Seen a Face
TTITLE10=All I´ve Got to Do
TTITLE11=I Saw Her Standing There
TTITLE12=P.S. I Love You
TTITLE13=No Reply
TTITLE14=All My Loving
TTITLE15=With a Little Help from my Friends
EXTD=
EXTT0=
EXTT1=
EXTT2=
EXTT3=
EXTT4=
EXTT5=
EXTT6=
EXTT7=
EXTT8=
EXTT9=
EXTT10=
EXTT11=
EXTT12=
EXTT13=
EXTT14=
EXTT15=
PLAYORDER=
